HIERARCHY
ROOT root
{
  OFFSET 0.0000 0.0000 0.0000
  CHANNELS 6 Xposition Yposition Zposition Zrotation Xrotation Yrotation
  JOINT lowerback
  {
    OFFSET 0.0000 0.0000 0.0000
    CHANNELS 3 Zrotation Xrotation Yrotation
    JOINT upperback
    {
      OFFSET -0.2975 11.0962 -0.4289
      CHANNELS 3 Zrotation Xrotation Yrotation
      JOINT thorax
      {
        OFFSET -0.0009 11.0405 -0.3169
        CHANNELS 3 Zrotation Xrotation Yrotation
        JOINT neck
        {
          OFFSET 0.1944 11.1642 0.0841
          CHANNELS 3 Zrotation Xrotation Yrotation
          JOINT head
          {
            OFFSET 1.6277 15.5530 -0.6089
            CHANNELS 3 Zrotation Xrotation Yrotation
            End Site
            {
                OFFSET 0.0000 0.0000 0.0000
            }
          }
        }
      }
      JOINT lshoulderjoint
      {
        OFFSET -0.0009 11.0405 -0.3169
        CHANNELS 3 Zrotation Xrotation Yrotation
        JOINT lhumerus
        {
          OFFSET 14.1669 18.7170 0.1105
          CHANNELS 3 Zrotation Xrotation Yrotation
          JOINT lradius
          {
            OFFSET 29.5186 0.0000 0.0000
            CHANNELS 3 Zrotation Xrotation Yrotation
            JOINT lhand
            {
              OFFSET 23.9354 0.0000 0.0000
              CHANNELS 3 Zrotation Xrotation Yrotation
              End Site
              {
                  OFFSET -0.0000 0.0000 0.0000
              }
            }
          }
        }
      }
      JOINT rshoulderjoint
      {
        OFFSET -0.0009 11.0405 -0.3169
        CHANNELS 3 Zrotation Xrotation Yrotation
        JOINT rhumerus
        {
          OFFSET -14.2042 18.2168 -0.2511
          CHANNELS 3 Zrotation Xrotation Yrotation
          JOINT rradius
          {
            OFFSET -29.7619 0.0000 0.0000
            CHANNELS 3 Zrotation Xrotation Yrotation
            JOINT rhand
            {
              OFFSET -25.1658 0.0000 0.0000
              CHANNELS 3 Zrotation Xrotation Yrotation
              End Site
              {
                  OFFSET 0.0000 0.0000 0.0000
              }
            }
          }
        }
      }
    }
  }
  JOINT rfemur
  {
    OFFSET -7.7032 -9.8555 2.1513
    CHANNELS 3 Zrotation Xrotation Yrotation
    JOINT rtibia
    {
      OFFSET -7.1353 -40.4666 0.0000
      CHANNELS 3 Zrotation Xrotation Yrotation
      JOINT rfoot
      {
        OFFSET -6.6645 -37.7961 0.0000
        CHANNELS 3 Zrotation Xrotation Yrotation
        JOINT rtoes
        {
          OFFSET -3.4134 -6.6508 11.8768
          CHANNELS 3 Zrotation Xrotation Yrotation
          End Site
          {
              OFFSET 0.0000 0.0000 0.0000
          }
        }
      }
    }
  }
  JOINT lfemur
  {
    OFFSET 8.5590 -9.8555 2.1513
    CHANNELS 3 Zrotation Xrotation Yrotation
    JOINT ltibia
    {
      OFFSET 7.2751 -41.2593 0.0000
      CHANNELS 3 Zrotation Xrotation Yrotation
      JOINT lfoot
      {
        OFFSET 6.5686 -37.2525 0.0000
        CHANNELS 3 Zrotation Xrotation Yrotation
        JOINT ltoes
        {
          OFFSET 3.2326 -4.1860 10.4122
          CHANNELS 3 Zrotation Xrotation Yrotation
          End Site
          {
              OFFSET 0.0000 0.0000 -0.0000
          }
        }
      }
    }
  }
}
MOTION
Frames:	11
Frame Time:	0.008333
-134.6269 89.8497 -176.7121 -13.18 20.57 31.74 -5.40 -21.17 -0.16 -0.61 -9.14 0.86 4.88 11.73 0.15 11.44 33.46 -18.95 2.76 2.38 -14.24 -79.93 2.39 -168.05 -8.78 -38.45 -164.06 0.00 -0.00 -55.34 19.48 21.23 19.51 94.74 -1.32 168.53 16.51 -8.34 -171.52 -0.00 -0.00 50.61 -48.82 -20.69 -54.69 12.48 -61.78 -5.14 6.75 52.94 -13.50 6.88 -19.23 20.83 0.00 0.00 -0.00 -9.44 -22.43 11.31 -3.83 43.41 9.60 -5.51 -29.65 -13.61 -0.00 0.00 0.00 
-134.2222 89.8802 -175.9882 -13.21 20.24 31.85 -5.23 -21.12 -0.10 -0.52 -9.01 0.91 4.83 11.81 0.17 11.50 33.46 -18.70 2.67 2.30 -13.98 -79.92 2.42 -167.96 -8.77 -38.90 -163.60 0.00 -0.00 -55.38 19.27 21.05 19.83 94.99 -1.39 168.44 16.30 -7.60 -171.29 -0.00 -0.00 50.66 -48.70 -19.74 -54.60 11.92 -61.10 -6.18 6.81 53.11 -13.59 7.01 -19.04 21.27 0.00 0.00 0.00 -9.13 -22.08 11.26 -3.96 43.96 9.79 -5.16 -28.80 -13.12 0.00 -0.00 0.00 
-133.8113 89.9150 -175.2511 -13.34 19.94 31.93 -5.11 -21.14 -0.03 -0.27 -8.96 0.95 4.96 11.87 0.18 11.41 33.40 -18.50 2.25 2.45 -13.81 -79.94 2.53 -167.87 -8.59 -39.06 -162.98 0.00 -0.00 -55.34 19.44 21.06 19.88 95.14 -1.54 168.41 16.01 -6.99 -171.06 -0.00 -0.00 50.61 -48.75 -18.87 -54.62 11.73 -60.41 -6.76 6.88 53.27 -13.67 7.12 -18.94 21.61 0.00 -0.00 0.00 -8.63 -22.13 11.23 -4.22 45.01 10.16 -4.79 -27.97 -12.55 0.00 0.00 0.00 
-133.4008 89.9310 -174.4988 -13.39 19.77 31.98 -5.09 -21.21 -0.02 -0.11 -9.00 0.95 5.09 11.90 0.17 11.23 33.35 -18.02 1.90 2.63 -13.41 -79.87 2.59 -167.84 -8.22 -38.94 -162.24 0.00 -0.00 -55.30 19.46 21.15 19.83 95.27 -1.61 168.40 15.79 -6.77 -170.91 -0.00 -0.00 50.62 -49.54 -18.19 -54.75 11.99 -59.74 -6.27 6.96 53.47 -13.77 6.92 -18.90 21.16 0.00 -0.04 0.01 -8.24 -22.40 11.15 -4.59 46.43 10.68 -4.40 -27.23 -11.90 -0.00 0.32 0.06 
-132.9792 89.9439 -173.7426 -13.54 19.62 32.09 -4.92 -21.32 0.06 0.02 -9.10 1.02 5.07 11.89 0.21 11.31 33.57 -17.97 1.76 2.77 -13.30 -79.65 2.58 -167.84 -7.81 -39.27 -161.57 0.00 -0.00 -55.29 19.20 21.04 19.86 95.36 -1.57 168.40 15.60 -6.39 -170.94 -0.00 -0.00 50.65 -49.76 -17.89 -54.72 12.28 -59.07 -5.91 7.03 53.63 -13.85 6.80 -18.92 20.84 0.00 -0.13 0.02 -7.92 -22.61 11.07 -4.96 47.74 11.19 -4.09 -25.95 -11.53 -0.00 0.16 0.03 
-132.5598 89.9244 -172.9590 -13.68 19.43 32.21 -4.82 -21.48 0.12 0.20 -9.16 1.07 5.17 11.96 0.23 11.23 33.67 -17.60 1.76 2.46 -12.95 -79.36 2.54 -167.79 -7.40 -39.57 -160.96 0.00 -0.00 -55.32 18.93 20.96 20.08 95.36 -1.46 168.32 15.33 -6.06 -171.01 -0.00 -0.00 50.69 -49.53 -18.02 -54.45 12.01 -58.47 -6.67 7.10 53.80 -13.94 7.00 -18.96 21.31 0.00 -0.10 0.02 -7.63 -22.87 10.96 -5.41 49.20 11.79 -3.93 -24.51 -11.49 -0.00 0.04 0.01 
-132.1440 89.9264 -172.1869 -13.84 19.23 32.42 -4.71 -21.59 0.19 0.38 -9.26 1.12 5.25 11.96 0.26 11.32 34.05 -17.68 1.68 2.70 -12.92 -79.29 2.54 -167.78 -7.17 -39.74 -160.30 0.00 -0.00 -55.40 18.58 20.60 20.62 95.36 -1.45 168.33 15.26 -6.14 -171.09 -0.00 -0.00 50.71 -49.16 -17.78 -54.19 11.56 -57.87 -7.74 7.17 53.96 -14.03 7.22 -19.10 21.76 0.00 -0.10 0.02 -7.25 -23.21 10.76 -5.92 50.73 12.46 -3.62 -23.36 -11.05 -0.00 0.37 0.07 
-131.7178 89.9704 -171.4310 -13.99 19.02 32.66 -4.49 -21.63 0.28 0.48 -9.31 1.20 5.17 11.94 0.30 11.39 34.11 -17.51 1.74 2.90 -12.72 -79.37 2.55 -167.78 -7.10 -40.41 -159.76 0.00 -0.00 -55.49 18.53 20.34 21.11 95.42 -1.49 168.35 15.31 -6.33 -171.12 -0.00 -0.00 50.74 -48.76 -17.15 -53.75 11.31 -57.15 -8.37 7.21 54.07 -14.08 7.37 -19.44 21.87 0.00 -0.09 0.02 -7.09 -23.65 10.02 -6.53 52.38 13.23 -2.82 -21.87 -9.39 -0.00 0.45 0.08 
-131.2863 90.0179 -170.6877 -14.08 18.65 32.89 -4.33 -21.62 0.38 0.67 -9.25 1.28 5.24 11.99 0.34 11.24 33.99 -17.18 1.97 2.90 -12.47 -79.34 2.58 -167.72 -6.99 -41.19 -159.35 0.00 -0.00 -55.60 18.59 20.41 21.09 95.39 -1.50 168.32 15.42 -6.65 -171.05 -0.00 -0.00 50.79 -48.62 -16.79 -53.76 11.18 -56.24 -8.80 7.25 54.16 -14.13 7.53 -19.92 21.93 0.00 -0.05 0.01 -6.80 -24.13 9.54 -7.25 54.15 14.12 -2.10 -19.67 -7.90 -0.00 0.18 0.03 
-130.8595 90.0697 -169.9557 -14.09 18.30 33.03 -4.19 -21.48 0.50 0.82 -9.25 1.40 5.30 11.85 0.40 11.21 34.10 -17.00 2.12 2.87 -12.29 -79.38 2.50 -167.85 -6.87 -41.68 -158.80 0.00 -0.00 -55.72 18.44 20.47 21.20 95.35 -1.43 168.46 15.61 -7.24 -171.13 -0.00 -0.00 50.83 -48.59 -16.88 -53.99 10.95 -55.31 -9.42 7.27 54.21 -14.16 7.76 -20.29 22.21 0.00 -0.07 0.01 -6.50 -24.65 9.22 -8.12 56.05 15.19 -1.59 -17.38 -6.80 -0.00 -0.02 -0.00 
-130.4831 90.0976 -169.2344 -14.36 18.01 33.23 -3.97 -21.42 0.63 1.02 -9.34 1.51 5.32 11.72 0.46 11.34 34.06 -16.98 2.03 2.93 -12.22 -79.57 2.36 -167.98 -6.91 -41.95 -158.22 0.00 -0.00 -55.85 18.30 20.53 20.94 95.25 -1.33 168.59 15.70 -7.75 -171.17 -0.00 -0.00 50.83 -48.70 -16.88 -54.24 11.55 -54.51 -9.04 7.26 54.18 -14.14 7.84 -20.80 22.08 0.00 -0.03 0.01 -6.19 -25.44 8.41 -9.21 58.15 16.49 -1.08 -15.32 -5.42 -0.00 -0.06 -0.01 
